<svg xmlns="http://www.w3.org/2000/svg" width="430" height="430" style="width:100%;height:100%;transform:translate3d(0,0,0);content-visibility:visible" viewBox="0 0 430 430"><defs><clipPath id="v"><path d="M0 0h430v430H0z"/></clipPath><clipPath id="O"><path d="M0 0h430v430H0z"/></clipPath><clipPath id="m"><path d="M0 0h430v430H0z"/></clipPath><clipPath id="L"><path d="M0 0h430v430H0z"/></clipPath><clipPath id="o"><path d="M0 0h430v430H0z"/></clipPath><clipPath id="I"><path d="M0 0h430v430H0z"/></clipPath><clipPath id="q"><path d="M0 0h430v430H0z"/></clipPath><clipPath id="F"><path d="M0 0h430v430H0z"/></clipPath><clipPath id="r"><path d="M0 0h430v430H0z"/></clipPath><clipPath id="C"><path d="M0 0h430v430H0z"/></clipPath><clipPath id="s"><path d="M0 0h430v430H0z"/></clipPath><clipPath id="z"><path d="M0 0h430v430H0z"/></clipPath><clipPath id="t"><path d="M0 0h430v430H0z"/></clipPath><clipPath id="w"><path d="M0 0h430v430H0z"/></clipPath><clipPath id="u"><path d="M0 0h430v430H0z"/></clipPath><filter id="P" width="300%" height="300%" x="-100%" y="-100%"><feGaussianBlur result="filter_result_0"/></filter><filter id="N" width="300%" height="300%" x="-100%" y="-100%"><feGaussianBlur result="filter_result_0" stdDeviation="52.5 52.5"/></filter><filter id="J" width="300%" height="300%" x="-100%" y="-100%"><feGaussianBlur result="filter_result_0"/></filter><filter id="G" width="300%" height="300%" x="-100%" y="-100%"><feGaussianBlur result="filter_result_0"/></filter><filter id="D" width="300%" height="300%" x="-100%" y="-100%"><feGaussianBlur result="filter_result_0"/></filter><filter id="A" width="300%" height="300%" x="-100%" y="-100%"><feGaussianBlur result="filter_result_0"/></filter><filter id="x" width="300%" height="300%" x="-100%" y="-100%"><feGaussianBlur result="filter_result_0"/></filter><mask id="Q" mask-type="alpha"><use xmlns:ns1="http://www.w3.org/1999/xlink" ns1:href="#a"/></mask><mask id="M" mask-type="alpha"><use xmlns:ns2="http://www.w3.org/1999/xlink" ns2:href="#b"/></mask><mask id="K" mask-type="alpha"><use xmlns:ns3="http://www.w3.org/1999/xlink" ns3:href="#c"/></mask><mask id="H" mask-type="alpha"><use xmlns:ns4="http://www.w3.org/1999/xlink" ns4:href="#e"/></mask><mask id="E" mask-type="alpha"><use xmlns:ns5="http://www.w3.org/1999/xlink" ns5:href="#g"/></mask><mask id="B" mask-type="alpha"><use xmlns:ns6="http://www.w3.org/1999/xlink" ns6:href="#i"/></mask><mask id="y" mask-type="alpha"><use xmlns:ns7="http://www.w3.org/1999/xlink" ns7:href="#k"/></mask><g id="a" fill-opacity="0" stroke-linecap="round" stroke-linejoin="round" clip-path="url(#m)" style="display:none"><path class="primary" style="display:none"/><path class="secondary" style="display:none"/></g><g id="b" fill-opacity="0" stroke-linecap="round" stroke-linejoin="round" stroke-width="12" clip-path="url(#o)" style="display:block"><path stroke="#121331" d="M0 167.5c92.508 0 167.5-74.992 167.5-167.5S92.508-167.5 0-167.5-167.5-92.508-167.5 0-92.508 167.5 0 167.5" class="primary" style="display:block" transform="translate(215 215)"/><path stroke="#08A88A" d="M0-30v60M-30 0v-30c0-16.569 13.431-30 30-30s30 13.431 30 30m0 30v30c0 16.569-13.431 30-30 30s-30-13.431-30-30M20-86.586A59.9 59.9 0 0 0 0-90c-33.137 0-60 26.863-60 60v60c0 17.77 7.725 33.736 20 44.722m20 11.864A59.9 59.9 0 0 0 0 90c33.137 0 60-26.863 60-60v-60c0-17.77-7.725-33.736-20-44.722M-70-86.573C-82.508-71.116-90-51.433-90-30v60c0 49.706 40.294 90 90 90 18.501 0 35.699-5.582 50-15.155m20-18.272C82.508 71.116 90 51.433 90 30v-60c0-49.706-40.294-90-90-90-18.501 0-35.699 5.582-50 15.155" class="secondary" style="display:block" transform="translate(215 215)"/></g><g id="c" fill-opacity="0" stroke-linecap="round" stroke-linejoin="round" clip-path="url(#q)" style="display:none"><path class="primary" style="display:none"/><path class="secondary" style="display:none"/><path class="secondary" style="display:none"/><path class="secondary" style="display:none"/></g><g id="e" fill-opacity="0" stroke-linecap="round" stroke-linejoin="round" clip-path="url(#r)" style="display:none"><path class="primary" style="display:none"/><path class="secondary" style="display:none"/><path class="secondary" style="display:none"/></g><g id="g" fill-opacity="0" stroke-linecap="round" stroke-linejoin="round" clip-path="url(#s)" style="display:none"><path class="primary" style="display:none"/><path class="secondary" style="display:none"/><path class="secondary" style="display:none"/><path class="secondary" style="display:none"/><path class="secondary" style="display:none"/></g><g id="i" fill-opacity="0" stroke-linecap="round" stroke-linejoin="round" clip-path="url(#t)" style="display:none"><path class="primary" style="display:none"/><path class="secondary" style="display:none"/><path class="secondary" style="display:none"/></g><g id="k" fill-opacity="0" stroke-linecap="round" stroke-linejoin="round" clip-path="url(#u)" style="display:none"><path class="primary" style="display:none"/><path class="secondary" style="display:none"/><path class="secondary" style="display:none"/><path class="secondary" style="display:none"/><path class="secondary" style="display:none"/></g></defs><g clip-path="url(#v)"><g clip-path="url(#w)" filter="url(#x)" mask="url(#y)" style="display:none"><g class="design"><path class="primary"/></g><g class="design"><path class="secondary"/></g></g><g clip-path="url(#z)" filter="url(#A)" mask="url(#B)" style="display:none"><g class="design"><path class="primary"/></g><g class="design"><path class="secondary"/></g></g><g clip-path="url(#C)" filter="url(#D)" mask="url(#E)" style="display:none"><g class="design"><path class="primary"/></g><g class="design"><path class="secondary"/></g></g><g clip-path="url(#F)" filter="url(#G)" mask="url(#H)" style="display:none"><g class="design"><path class="primary"/></g><g class="design"><path class="secondary"/></g></g><g clip-path="url(#I)" filter="url(#J)" mask="url(#K)" style="display:none"><g class="design"><path class="primary"/></g><g class="design"><path class="secondary"/></g></g><g clip-path="url(#L)" mask="url(#M)" style="display:block"><g filter="url(#N)" transform="rotate(-94 238.762 -16.565)scale(2.4)"><g class="design"><path fill="#4AE0EB" d="M0-250c137.975 0 250 112.025 250 250S137.975 250 0 250-250 137.975-250 0-137.975-250 0-250" class="primary"/></g><g class="design"><path fill="#CA5EED" d="M113.242-295.384c97.478 0 176.5 79.022 176.5 176.5s-79.022 176.5-176.5 176.5c-43.948 0-74.396-34.057-105.29-60.631-37.631-32.369-71.21-62.338-71.21-115.869 0-97.478 79.022-176.5 176.5-176.5" class="secondary"/></g></g></g><g clip-path="url(#O)" filter="url(#P)" mask="url(#Q)" style="display:none"><g class="design"><path class="primary"/></g><g class="design"><path class="secondary"/></g></g></g></svg>